<svg height="496pt" viewBox="0 0 496 496" width="496pt" xmlns="http://www.w3.org/2000/svg"><path d="m40 160h288c4.425781 0 8-3.585938 8-8v-48c0-4.414062-3.574219-8-8-8h-288c-4.425781 0-8 3.585938-8 8v48c0 4.414062 3.574219 8 8 8zm8-48h272v32h-272zm0 0"/><path d="m40 224h48c4.425781 0 8-3.585938 8-8v-32c0-4.414062-3.574219-8-8-8h-48c-4.425781 0-8 3.585938-8 8v32c0 4.414062 3.574219 8 8 8zm8-32h32v16h-32zm0 0"/><path d="m40 304h48c4.425781 0 8-3.585938 8-8v-48c0-4.414062-3.574219-8-8-8h-48c-4.425781 0-8 3.585938-8 8v48c0 4.414062 3.574219 8 8 8zm8-48h32v32h-32zm0 0"/><path d="m40 384h48c4.425781 0 8-3.585938 8-8v-48c0-4.414062-3.574219-8-8-8h-48c-4.425781 0-8 3.585938-8 8v48c0 4.414062 3.574219 8 8 8zm8-48h32v32h-32zm0 0"/><path d="m40 464h48c4.425781 0 8-3.585938 8-8v-48c0-4.414062-3.574219-8-8-8h-48c-4.425781 0-8 3.585938-8 8v48c0 4.414062 3.574219 8 8 8zm8-48h32v32h-32zm0 0"/><path d="m168 240h-48c-4.425781 0-8 3.585938-8 8v48c0 4.414062 3.574219 8 8 8h48c4.425781 0 8-3.585938 8-8v-48c0-4.414062-3.574219-8-8-8zm-8 48h-32v-32h32zm0 0"/><path d="m168 320h-48c-4.425781 0-8 3.585938-8 8v48c0 4.414062 3.574219 8 8 8h48c4.425781 0 8-3.585938 8-8v-48c0-4.414062-3.574219-8-8-8zm-8 48h-32v-32h32zm0 0"/><path d="m168 400h-48c-4.425781 0-8 3.585938-8 8v48c0 4.414062 3.574219 8 8 8h48c4.425781 0 8-3.585938 8-8v-48c0-4.414062-3.574219-8-8-8zm-8 48h-32v-32h32zm0 0"/><path d="m248 240h-48c-4.425781 0-8 3.585938-8 8v48c0 4.414062 3.574219 8 8 8h48c4.425781 0 8-3.585938 8-8v-48c0-4.414062-3.574219-8-8-8zm-8 48h-32v-32h32zm0 0"/><path d="m328 240h-48c-4.425781 0-8 3.585938-8 8v48c0 4.414062 3.574219 8 8 8h48c4.425781 0 8-3.585938 8-8v-48c0-4.414062-3.574219-8-8-8zm-8 48h-32v-32h32zm0 0"/><path d="m248 320h-48c-4.425781 0-8 3.585938-8 8v48c0 4.414062 3.574219 8 8 8h48c4.425781 0 8-3.585938 8-8v-48c0-4.414062-3.574219-8-8-8zm-8 48h-32v-32h32zm0 0"/><path d="m248 400h-48c-4.425781 0-8 3.585938-8 8v48c0 4.414062 3.574219 8 8 8h48c4.425781 0 8-3.585938 8-8v-48c0-4.414062-3.574219-8-8-8zm-8 48h-32v-32h32zm0 0"/><path d="m168 176h-48c-4.425781 0-8 3.585938-8 8v32c0 4.414062 3.574219 8 8 8h48c4.425781 0 8-3.585938 8-8v-32c0-4.414062-3.574219-8-8-8zm-8 32h-32v-16h32zm0 0"/><path d="m248 176h-48c-4.425781 0-8 3.585938-8 8v32c0 4.414062 3.574219 8 8 8h48c4.425781 0 8-3.585938 8-8v-32c0-4.414062-3.574219-8-8-8zm-8 32h-32v-16h32zm0 0"/><path d="m328 176h-48c-4.425781 0-8 3.585938-8 8v32c0 4.414062 3.574219 8 8 8h48c4.425781 0 8-3.585938 8-8v-32c0-4.414062-3.574219-8-8-8zm-8 32h-32v-16h32zm0 0"/><path d="m328 320h-48c-4.425781 0-8 3.585938-8 8v128c0 4.414062 3.574219 8 8 8h48c4.425781 0 8-3.585938 8-8v-128c0-4.414062-3.574219-8-8-8zm-8 128h-32v-112h32zm0 0"/><path d="m24 48h368c.671875 0 1.273438-.222656 1.902344-.382812l.042968.144531 64-16c3.558594-.890625 6.054688-4.089844 6.054688-7.761719s-2.496094-6.871094-6.0625-7.761719l-64-16-.042969.144531c-.621093-.160156-1.222656-.382812-1.894531-.382812h-368c-13.230469 0-24 10.769531-24 24s10.769531 24 24 24zm376-18.246094v-11.507812l23.015625 5.753906zm-16 2.246094h-304v-16h304zm-360-16h40v16h-40c-4.414062 0-8-3.59375-8-8s3.585938-8 8-8zm0 0"/><path d="m488 96h-120v-24c0-4.414062-3.574219-8-8-8h-352c-4.425781 0-8 3.585938-8 8v416c0 4.414062 3.574219 8 8 8h352c4.425781 0 8-3.585938 8-8v-24h120c4.425781 0 8-3.585938 8-8v-352c0-4.414062-3.574219-8-8-8zm-136 384h-336v-400h336zm16-272h80v208h-80zm112 240h-112v-16h88c4.425781 0 8-3.585938 8-8v-224c0-4.414062-3.574219-8-8-8h-88v-16h96v-16h-96v-16h80v-16h-80v-16h112zm0 0"/></svg>