<?xml version="1.0" encoding="iso-8859-1"?>
<!-- Generator: Adobe Illustrator 19.0.0, SVG Export Plug-In . SVG Version: 6.00 Build 0)  -->
<svg version="1.1" id="Capa_1" xmlns="http://www.w3.org/2000/svg" xmlns:xlink="http://www.w3.org/1999/xlink" x="0px" y="0px"
	 viewBox="0 0 512.004 512.004" style="enable-background:new 0 0 512.004 512.004;" xml:space="preserve">
<g>
	<g>
		<g>
			<path d="M8.534,477.871h494.933c4.713,0,8.533-3.82,8.533-8.533s-3.82-8.533-8.533-8.533h-8.533V107.678l4.719,2.364
				c2.729,1.363,5.977,1.166,8.521-0.515c2.544-1.682,3.998-4.593,3.814-7.637s-1.978-5.759-4.707-7.122L319.548,0.9
				c-2.401-1.2-5.227-1.2-7.629,0L124.186,94.767c-2.729,1.363-4.523,4.078-4.707,7.122s1.27,5.956,3.814,7.637
				c2.544,1.682,5.793,1.878,8.521,0.515l4.719-2.364v230.127l-2.5-2.5c-3.348-3.234-8.671-3.188-11.962,0.104
				c-3.292,3.292-3.338,8.614-0.104,11.962l6.409,6.409l-14.029,13.065l-5.973-5.973c-3.348-3.234-8.671-3.188-11.962,0.104
				c-3.292,3.292-3.338,8.614-0.104,11.962l5.521,5.521l-13.935,13.107l-5.06-5.06c-3.348-3.234-8.671-3.188-11.962,0.104
				c-3.292,3.292-3.338,8.614-0.104,11.962l4.642,4.642L61.44,416.277l-4.173-4.173c-3.348-3.234-8.671-3.188-11.962,0.104
				c-3.292,3.292-3.338,8.614-0.104,11.962l3.755,3.755l-13.995,13.073l-3.294-3.294c-3.348-3.234-8.671-3.188-11.962,0.104
				c-3.292,3.292-3.338,8.614-0.104,11.962l2.876,2.876l-8.772,8.158H8.534c-4.713,0-8.533,3.82-8.533,8.533
				S3.821,477.871,8.534,477.871z M426.667,460.804H204.8v-59.733h221.867V460.804z M477.867,460.804h-34.133v-59.733h34.133
				V460.804z M153.6,332.804h59.733c4.713,0,8.533-3.82,8.533-8.533s-3.821-8.533-8.533-8.533H153.6V99.144l162.133-81.067
				l162.133,81.067v216.593h-230.4c-4.713,0-8.533,3.82-8.533,8.533s3.82,8.533,8.533,8.533h230.4v51.2H153.6V332.804z
				 M153.6,401.071h34.133v59.733H153.6V401.071z M136.534,369.497v91.307H38.716L136.534,369.497z"/>
			<path d="M85.333,494.937h-76.8c-4.713,0-8.533,3.82-8.533,8.533s3.82,8.533,8.533,8.533h76.8c4.713,0,8.533-3.82,8.533-8.533
				S90.046,494.937,85.333,494.937z"/>
			<path d="M503.467,494.937h-384c-4.713,0-8.533,3.82-8.533,8.533s3.82,8.533,8.533,8.533h384c4.713,0,8.533-3.82,8.533-8.533
				S508.18,494.937,503.467,494.937z"/>
			<path d="M247.467,136.537v128c0,4.713,3.82,8.533,8.533,8.533h170.667c4.713,0,8.533-3.82,8.533-8.533v-128h8.533
				c4.713,0,8.533-3.82,8.533-8.533c0-4.713-3.82-8.533-8.533-8.533h-204.8c-4.713,0-8.533,3.82-8.533,8.533
				c0,4.713,3.82,8.533,8.533,8.533H247.467z M349.867,136.537h68.267v51.2h-68.267V136.537z M349.867,204.804h68.267v51.2h-68.267
				V204.804z M264.534,136.537H332.8v51.2h-68.267V136.537z M264.534,204.804H332.8v51.2h-68.267V204.804z"/>
		</g>
	</g>
</g>
<g>
</g>
<g>
</g>
<g>
</g>
<g>
</g>
<g>
</g>
<g>
</g>
<g>
</g>
<g>
</g>
<g>
</g>
<g>
</g>
<g>
</g>
<g>
</g>
<g>
</g>
<g>
</g>
<g>
</g>
</svg>
