<?xml version="1.0" encoding="iso-8859-1"?>
<!-- Generator: Adobe Illustrator 19.0.0, SVG Export Plug-In . SVG Version: 6.00 Build 0)  -->
<svg version="1.1" id="Capa_1" xmlns="http://www.w3.org/2000/svg" xmlns:xlink="http://www.w3.org/1999/xlink" x="0px" y="0px"
	 viewBox="0 0 480 480" style="enable-background:new 0 0 480 480;" xml:space="preserve">
<g>
	<g>
		<path d="M416,280.472V280h-43.048c22.108-14.675,37.164-37.838,41.6-64H424c13.255,0,24-10.745,24-24s-10.745-24-24-24h-8v-16h16
			v-48h-16.352c-3.42-40.626-32.163-74.645-71.648-84.8V0h-48v19.2c-39.485,10.155-68.228,44.174-71.648,84.8H208v48h16v16h-8
			c-13.255,0-24,10.745-24,24s10.745,24,24,24h9.448c4.436,26.162,19.492,49.325,41.6,64H224v0.472
			c-36.414,4.108-63.95,34.883-64,71.528v40h16v88h288v-88h16v-40C479.95,315.355,452.414,284.58,416,280.472z M224,200h-8
			c-4.418,0-8-3.582-8-8s3.582-8,8-8h8V200z M224,464h-32v-72h32V464z M224,376h-48v-24c0.05-27.806,20.481-51.371,48-55.36V376z
			 M424,184c4.418,0,8,3.582,8,8s-3.582,8-8,8h-8v-16H424z M376,55.096c5.136,5.017,9.573,10.703,13.192,16.904H384
			c-4.418,0-8-3.582-8-8V55.096z M312,16h16v9.52V72h-16V16z M264,55.096v0.024V64c0,4.418-3.582,8-8,8h-5.192
			C254.427,65.799,258.864,60.113,264,55.096z M243.888,88H256c13.255,0,24-10.745,24-24V42.984c5.047-3.005,10.414-5.439,16-7.256
			V88h48V35.728c5.586,1.817,10.953,4.251,16,7.256V64c0,13.255,10.745,24,24,24h12.112c1.712,5.198,2.881,10.56,3.488,16H240.4
			C241.007,98.561,242.176,93.199,243.888,88z M224,136v-16h192v16H224z M240,200v-48h160v48c0,44.183-35.817,80-80,80
			C275.817,280,240,244.183,240,200z M320,328c17.673,0,32-14.327,32-32h16v48h-96v-48h16C288,313.673,302.327,328,320,328z
			 M304,296h32c0,8.837-7.163,16-16,16S304,304.837,304,296z M368,464h-96v-40h96V464z M400,464h-16v-56H256v56h-16V296h16v64h128
			v-64h16V464z M448,464h-32v-72h32V464z M464,376h-48v-79.36c27.519,3.989,47.95,27.554,48,55.36V376z"/>
	</g>
</g>
<g>
	<g>
		<path d="M280,168c-13.255,0-24,10.745-24,24v8h16v-8c0-4.418,3.582-8,8-8s8,3.582,8,8v8h16v-8C304,178.745,293.255,168,280,168z"
			/>
	</g>
</g>
<g>
	<g>
		<path d="M360,168c-13.255,0-24,10.745-24,24v8h16v-8c0-4.418,3.582-8,8-8s8,3.582,8,8v8h16v-8C384,178.745,373.255,168,360,168z"
			/>
	</g>
</g>
<g>
	<g>
		<path d="M288,216v16c0,17.673,14.327,32,32,32c17.673,0,32-14.327,32-32v-16H288z M320,248c-8.837,0-16-7.163-16-16h32
			C336,240.837,328.837,248,320,248z"/>
	</g>
</g>
<g>
	<g>
		<path d="M136.968,165.656l-48-48c-9.381-9.347-24.555-9.347-33.936,0l-48,48C2.515,170.149-0.017,176.261,0,182.632V256
			c0,13.255,10.745,24,24,24h24v200h48V280h24c13.255,0,24-10.745,24-24v-73.368C144.017,176.261,141.485,170.149,136.968,165.656z
			 M80,464H64v-72h16V464z M80,376H64V272l-0.144-21.416c2.254-1.927,5.192-2.859,8.144-2.584c2.784-0.021,5.531,0.641,8,1.928V376z
			 M128,256c0,4.418-3.582,8-8,8H96v-14.072C96,239.872,85.464,232,72,232s-24,7.872-24,17.928V264H24c-4.418,0-8-3.582-8-8v-73.368
			c-0.002-2.124,0.842-4.162,2.344-5.664l48-48c3.124-3.123,8.188-3.123,11.312,0l48,48c1.502,1.502,2.346,3.54,2.344,5.664V256z"/>
	</g>
</g>
<g>
</g>
<g>
</g>
<g>
</g>
<g>
</g>
<g>
</g>
<g>
</g>
<g>
</g>
<g>
</g>
<g>
</g>
<g>
</g>
<g>
</g>
<g>
</g>
<g>
</g>
<g>
</g>
<g>
</g>
</svg>
